<?xml version="1.0" encoding="UTF-8"?>
<svg id="Ebene_1" xmlns="http://www.w3.org/2000/svg" version="1.1" viewBox="0 0 512 512">
  <!-- Generator: Adobe Illustrator 29.8.2, SVG Export Plug-In . SVG Version: 2.1.1 Build 3)  -->
  <defs>
    <style>
      .st0 {
        fill: #29abe2;
      }

      .st1 {
        fill: #0071bc;
      }

      .st2 {
        fill: #00f5ff;
      }

      .st3 {
        fill: #f2f2f2;
      }

      .st4 {
        fill: #b3b3b3;
      }
    </style>
  </defs>
  <path class="st2" d="M6.05,251.1h66.44v117.64c5.29-.21,30.71-1.8,48.66-22.43,8.87-10.19,12.43-21.02,13.96-27.51.14-22.57.28-45.14.42-67.71,25.95,32.44,51.91,64.89,77.86,97.33,3.29,2.63,18.53,14.26,39.57,11.92,2.39-.27,15.54-1.9,27.46-11.8,23.5-19.52,20.09-52.78,19.72-55.98-2.83,3.97-5.85,6.1-8.39,7.31-13.15,6.28-33.49-2.36-50.43-21.7-29.35-36.53-58.69-73.07-88.04-109.6-14.02-17.46-29.36-20.11-42.72-19.89-21.25.35-36.63,15.37-42.32,21.58-20.74,26.94-41.47,53.88-62.21,80.82l.02.02Z"/>
  <path class="st1" d="M342.47,205.75v139.64c.2,3.67,1.63,23.88,18.83,38.93,18.69,16.35,41.12,13.58,44.43,13.12v-191.69h-63.26,0Z"/>
  <path class="st4" d="M236.82,234.03"/>
  <path class="st1" d="M236.82,234.03c1.43-4.3,5.1-13.19,13.97-19.72,7.52-5.53,15.43-6.92,20.14-7.74,4.75-.83,8.82-.92,11.74-.83h17.86c-.13,28.94-.26,57.88-.38,86.82-3.12,4.37-6.43,6.36-8.39,7.31-11.93,5.75-26.1-2.21-30.6-4.74-2.73-1.53-4.59-2.92-6.51-4.36-8.61-6.45-14.31-13.32-17.82-18.22v-38.53h0Z"/>
  <path class="st0" d="M300.35,142.71c-14.83,2.81-25.79,15.35-26.52,29.9-.78,15.68,10.5,30.05,26.52,33.13h156.22c3.91-.55,23.59-3.74,37.52-21.85,13.66-17.76,12-37.15,11.57-41.19h-205.31Z"/>
  <path class="st2" d="M236.82,234.03c-.41-6.43-2.79-54.97,29.43-78.09,14.88-10.68,33.56-13.36,33.64-13.13.06.18-11.01,1.99-18.61,10.89-8.54,9.99-7.41,22.7-7.3,23.72,1.1,10.55,7.22,17.23,9.58,19.54,6.59,6.44,14.04,8.24,16.99,8.79h-17.86c-3.63-.16-8.9-.03-15,1.43-4.78,1.15-12.91,3.1-20.28,9.92-6.4,5.93-9.27,12.79-10.58,16.93h0Z"/>
  <path class="st0" d="M366.32,134.15h-40.41c-10.4-6.57-38.74-22.5-76.8-19.89-57.94,3.97-90.94,47.64-95.81,54.31-2.23-2.93-5.62-6.74-10.45-10.3-4.21-3.1-8.22-5.08-11.37-6.35,5.04-6.68,49.28-63.27,124.88-63.42,61.93-.13,101.93,37.7,109.98,45.65h-.02Z"/>
  <path class="st0" d="M346.85,378.39c-2.31-3.38-5.02-8.09-7.05-14.11-1.38-4.1-2.13-7.86-2.54-11-12.04,9.57-37.82,26.99-72.78,28.21-52.12,1.82-102.93-33.13-129.2-88.58-.05,8.63-.11,17.26-.16,25.89-.73,3.13-1.83,6.76-3.49,10.67-1.28,3.02-2.67,5.66-4.02,7.93,5.42,7.91,44.13,62.42,115.36,69.02,53.69,4.98,92.84-20.33,103.89-28.03h0Z"/>
  <circle class="st0" cx="256.34" cy="258.71" r="12.91"/>
  <path class="st3" d="M252.87,190.89c.43-1.61,1.94-2.64,3.47-2.48,1.31.14,2.43,1.13,2.77,2.48v55.21c-.75-.16-1.69-.3-2.77-.3-1.41,0-2.6.24-3.47.48v-55.39Z"/>
  <path class="st3" d="M282.67,259.16"/>
  <path class="st3" d="M268.81,255.37l41.1-.12c1.62.59,2.71,2.14,2.72,3.86,0,1.71-1.06,3.25-2.66,3.86-13.8-.04-27.6-.09-41.39-.13.3-.88.63-2.16.68-3.73.05-1.56-.2-2.85-.44-3.74h-.01Z"/>
  <path class="st3" d="M342.47,255.25h18.4c1.32.65,2.15,2.01,2.12,3.46-.03,1.37-.82,2.62-2.05,3.26h-18.47c-.1-.06-1.87-1.2-1.87-3.36s1.77-3.29,1.87-3.36h0Z"/>
  <path class="st3" d="M170.21,262.1c-6.13,0-12.26-.01-18.4-.02-1.32-.65-2.15-2.01-2.11-3.46.03-1.37.82-2.62,2.05-3.25,6.16,0,12.31,0,18.47.02.1.06,1.87,1.2,1.87,3.36s-1.77,3.29-1.88,3.36h0Z"/>
  <path class="st3" d="M252.65,149.06c0-6.13-.02-12.26-.02-18.4.65-1.32,2-2.15,3.46-2.12,1.37.03,2.62.81,3.26,2.04,0,6.16.02,12.31.02,18.47-.06.1-1.2,1.87-3.36,1.88s-3.3-1.76-3.36-1.87h0Z"/>
  <path class="st3" d="M259.9,344.83c0,6.13.01,12.26.02,18.4-.65,1.32-2,2.15-3.46,2.12-1.37-.03-2.62-.81-3.26-2.04,0-6.16,0-12.31-.02-18.47.06-.1,1.2-1.87,3.36-1.88,2.16-.01,3.3,1.76,3.36,1.87h0Z"/>
</svg>