<?xml version="1.0" encoding="UTF-8"?>
<svg id="Ebene_1" data-name="Ebene 1" xmlns="http://www.w3.org/2000/svg" viewBox="0 0 499.9 318.55">
  <path d="M488.03,95.39c-13.92,18.11-33.61,21.3-37.52,21.85h-50.83v191.69c-3.31.47-25.74,3.24-44.43-13.12-17.2-15.05-18.64-35.26-18.83-38.93V117.24h-41.93c-.13,28.94-.26,57.88-.39,86.82.38,3.2,3.79,36.46-19.71,55.97-11.92,9.9-25.07,11.54-27.46,11.81-21.04,2.34-36.29-9.29-39.58-11.93-25.95-32.44-51.91-64.88-77.86-97.32-.09,13.94-.17,27.87-.26,41.81,26.27,55.46,77.07,90.4,129.2,88.58,34.97-1.22,60.74-18.64,72.78-28.21.41,3.15,1.15,6.9,2.54,11,2.03,6.02,4.74,10.73,7.05,14.11-11.04,7.71-50.2,33.01-103.89,28.03-71.22-6.6-109.93-61.11-115.35-69.02-1.76,2.95-3.89,5.96-6.46,8.91-17.95,20.63-43.37,22.21-48.66,22.43v-117.64H0c20.74-26.94,41.47-53.89,62.21-80.83,5.69-6.2,21.06-21.23,42.31-21.58,6.61-.11,13.72.49,20.9,3.23C130.5,56.68,174.73.15,250.29,0c61.93-.13,101.93,37.7,109.98,45.64h-40.41c-10.41-6.57-38.74-22.5-76.81-19.88-57.94,3.97-90.94,47.63-95.81,54.31,27.85,34.66,55.68,69.32,83.53,103.98v-38.53c-.41-6.43-2.79-54.97,29.43-78.09,14.87-10.68,33.55-13.36,33.63-13.13.15-.04.31-.07.47-.1h205.3c.44,4.04,2.09,23.43-11.57,41.19Z"/>
</svg>